<svg xmlns="http://www.w3.org/2000/svg" xmlns:xlink="http://www.w3.org/1999/xlink" width="153" height="743" viewBox="0 0 153 743">
  <defs>
    <clipPath id="clip-path">
      <rect id="Rectángulo_95" data-name="Rectángulo 95" width="153" height="743" transform="translate(83 3192.902)" fill="#fff"/>
    </clipPath>
  </defs>
  <g id="figure-software" transform="translate(-83 -3192.902)" clip-path="url(#clip-path)">
    <g id="Grupo_527" data-name="Grupo 527" transform="translate(455.768 4319.29) rotate(-139)" opacity="0.07" style="isolation: isolate">
      <g id="Grupo_526" data-name="Grupo 526" transform="translate(0 0)">
        <g id="Grupo_490" data-name="Grupo 490" transform="translate(62.972 93.717)">
          <g id="Grupo_456" data-name="Grupo 456" transform="translate(454.432 0)">
            <path id="Trazado_709" data-name="Trazado 709" d="M50.71,117.112l-.109-.061L0,87.836V29.279l.109-.064L50.71,0l.112.064,50.6,29.215V87.836l-.109.061ZM.437,87.58,50.71,116.606,100.985,87.58V29.532L50.71.506.437,29.532Z" transform="translate(0 0)" fill="#fff"/>
          </g>
          <g id="Grupo_457" data-name="Grupo 457" transform="translate(555.417 0)">
            <path id="Trazado_710" data-name="Trazado 710" d="M50.71,117.112l-.109-.061L0,87.836V29.279l.109-.064L50.71,0l.112.064,50.6,29.215V87.836l-.109.061ZM.437,87.58,50.71,116.606,100.985,87.58V29.532L50.71.506.437,29.532Z" transform="translate(0 0)" fill="#fff"/>
          </g>
          <g id="Grupo_458" data-name="Grupo 458" transform="translate(656.402 0)">
            <path id="Trazado_711" data-name="Trazado 711" d="M50.71,117.112l-.109-.061L0,87.836V29.279l.109-.064L50.71,0l.109.064,50.6,29.215V87.836l-.109.061ZM.437,87.58,50.71,116.606,100.982,87.58V29.532L50.71.506.437,29.532Z" transform="translate(0 0)" fill="#fff"/>
          </g>
          <g id="Grupo_459" data-name="Grupo 459" transform="translate(757.384 0)">
            <path id="Trazado_712" data-name="Trazado 712" d="M50.712,117.112l-.109-.061L0,87.836V29.279l.112-.064L50.712,0l.109.064,50.6,29.215V87.836l-.109.061ZM.44,87.58l50.273,29.026L100.985,87.58V29.532L50.712.506.44,29.532Z" transform="translate(0 0)" fill="#fff"/>
          </g>
          <g id="Grupo_460" data-name="Grupo 460" transform="translate(858.368 0)">
            <path id="Trazado_713" data-name="Trazado 713" d="M63.108,109.45l-12.4,7.157L.439,87.582V29.532L50.712.507l12.4,7.157V7.157L50.822.064,50.712,0,.11,29.215,0,29.278V87.836L50.6,117.05l.11.063,12.4-7.157Z" transform="translate(0 0)" fill="#fff"/>
          </g>
          <g id="Grupo_461" data-name="Grupo 461" transform="translate(0 87.456)">
            <path id="Trazado_714" data-name="Trazado 714" d="M50.712,117.112l-.109-.061L0,87.836V29.279l.109-.064L50.712,0l.109.064,50.6,29.215V87.836l-.109.061ZM.44,87.58l50.273,29.026L100.985,87.58V29.532L50.712.506.44,29.532Z" transform="translate(0 0)" fill="#fff"/>
          </g>
          <g id="Grupo_462" data-name="Grupo 462" transform="translate(504.923 87.456)">
            <path id="Trazado_715" data-name="Trazado 715" d="M50.712,117.112l-.109-.061L0,87.836V29.279l.109-.064L50.712,0l.109.064,50.6,29.215V87.836l-.109.061ZM.44,87.58l50.273,29.026L100.985,87.58V29.532L50.712.506.44,29.532Z" transform="translate(0 0)" fill="#fff"/>
          </g>
          <g id="Grupo_463" data-name="Grupo 463" transform="translate(605.908 87.456)">
            <path id="Trazado_716" data-name="Trazado 716" d="M50.712,117.112l-.109-.061L0,87.836V29.279l.109-.064L50.712,0l.109.064,50.6,29.215V87.836l-.112.061ZM.44,87.58l50.273,29.026L100.985,87.58V29.532L50.712.506.44,29.532Z" transform="translate(0 0)" fill="#fff"/>
          </g>
          <g id="Grupo_464" data-name="Grupo 464" transform="translate(706.893 87.456)">
            <path id="Trazado_717" data-name="Trazado 717" d="M50.712,117.112l-.109-.061L0,87.836V29.279l.109-.064L50.712,0l.109.064,50.6,29.215V87.836l-.109.061ZM.439,87.58l50.273,29.026L100.985,87.58V29.532L50.712.506.439,29.532Z" transform="translate(0 0)" fill="#fff"/>
          </g>
          <g id="Grupo_465" data-name="Grupo 465" transform="translate(807.878 87.456)">
            <path id="Trazado_718" data-name="Trazado 718" d="M50.71,117.112l-.109-.061L0,87.836V29.279l.109-.064L50.71,0l.109.064,50.6,29.215V87.836l-.109.061ZM.437,87.58,50.71,116.606,100.982,87.58V29.532L50.71.506.437,29.532Z" transform="translate(0 0)" fill="#fff"/>
          </g>
          <g id="Grupo_466" data-name="Grupo 466" transform="translate(908.861 109.45)">
            <path id="Trazado_719" data-name="Trazado 719" d="M12.616,72.618.439,65.587V7.537L12.616.507V0L.11,7.22,0,7.284V65.841l12.616,7.284Z" transform="translate(0 0)" fill="#fff"/>
          </g>
          <g id="Grupo_467" data-name="Grupo 467" transform="translate(656.402 174.911)">
            <path id="Trazado_720" data-name="Trazado 720" d="M50.71,117.112l-.109-.061L0,87.836V29.279l.109-.064L50.71,0l.109.064,50.6,29.215V87.836l-.109.061ZM.437,87.58,50.71,116.606,100.982,87.58V29.532L50.71.506.437,29.532Z" transform="translate(0 0)" fill="#fff"/>
          </g>
          <g id="Grupo_468" data-name="Grupo 468" transform="translate(757.384 174.911)">
            <path id="Trazado_721" data-name="Trazado 721" d="M50.712,117.112l-.109-.061L0,87.836V29.279l.112-.064L50.712,0l.109.064,50.6,29.215V87.836l-.109.061ZM.44,87.58l50.273,29.026L100.985,87.58V29.532L50.712.506.44,29.532Z" transform="translate(0 0)" fill="#fff"/>
          </g>
          <g id="Grupo_469" data-name="Grupo 469" transform="translate(858.368 174.91)">
            <path id="Trazado_722" data-name="Trazado 722" d="M63.108,109.45l-12.4,7.157L.439,87.582V29.532L50.712.507l12.4,7.157V7.157L50.822.063,50.712,0,.11,29.215,0,29.278V87.835L50.6,117.05l.11.064,12.4-7.157Z" transform="translate(0 0)" fill="#fff"/>
          </g>
          <g id="Grupo_470" data-name="Grupo 470" transform="translate(706.893 262.366)">
            <path id="Trazado_723" data-name="Trazado 723" d="M50.712,117.112l-.109-.061L0,87.836V29.279l.109-.064L50.712,0l.109.064,50.6,29.215V87.836l-.109.061ZM.439,87.58l50.273,29.026L100.985,87.58V29.532L50.712.506.439,29.532Z" transform="translate(0 0)" fill="#fff"/>
          </g>
          <g id="Grupo_471" data-name="Grupo 471" transform="translate(807.878 262.366)">
            <path id="Trazado_724" data-name="Trazado 724" d="M50.71,117.112l-.109-.061L0,87.836V29.279l.109-.064L50.71,0l.109.064,50.6,29.215V87.836l-.109.061ZM.437,87.58,50.71,116.606,100.982,87.58V29.532L50.71.506.437,29.532Z" transform="translate(0 0)" fill="#fff"/>
          </g>
          <g id="Grupo_472" data-name="Grupo 472" transform="translate(908.861 284.36)">
            <path id="Trazado_725" data-name="Trazado 725" d="M12.616,72.618.439,65.587V7.537L12.616.507V0L.11,7.22,0,7.284V65.841l12.616,7.284Z" transform="translate(0 0)" fill="#fff"/>
          </g>
          <g id="Grupo_473" data-name="Grupo 473" transform="translate(50.494 349.821)">
            <path id="Trazado_726" data-name="Trazado 726" d="M50.71,117.112l-.109-.061L0,87.836V29.279l.109-.064L50.71,0l.112.064,50.6,29.215V87.836l-.112.061ZM.437,87.58,50.71,116.606,100.982,87.58V29.532L50.71.506.437,29.532Z" transform="translate(0 0)" fill="#fff"/>
          </g>
          <g id="Grupo_474" data-name="Grupo 474" transform="translate(757.384 349.821)">
            <path id="Trazado_727" data-name="Trazado 727" d="M50.712,117.112l-.109-.061L0,87.836V29.279l.112-.064L50.712,0l.109.064,50.6,29.215V87.836l-.109.061ZM.44,87.58l50.273,29.026L100.985,87.58V29.532L50.712.506.44,29.532Z" transform="translate(0 0)" fill="#fff"/>
          </g>
          <g id="Grupo_475" data-name="Grupo 475" transform="translate(858.368 349.821)">
            <path id="Trazado_728" data-name="Trazado 728" d="M63.108,109.449l-12.4,7.157L.439,87.582V29.532L50.712.507l12.4,7.157V7.157L50.822.063,50.712,0,.11,29.215,0,29.278V87.835L50.6,117.05l.11.063,12.4-7.157Z" transform="translate(0 0)" fill="#fff"/>
          </g>
          <g id="Grupo_476" data-name="Grupo 476" transform="translate(0 437.277)">
            <path id="Trazado_729" data-name="Trazado 729" d="M50.712,117.112l-.109-.061L0,87.836V29.279l.109-.064L50.712,0l.109.064,50.6,29.215V87.836l-.109.061ZM.44,87.58l50.273,29.026L100.985,87.58V29.532L50.712.506.44,29.532Z" transform="translate(0 0)" fill="#fff"/>
          </g>
          <g id="Grupo_477" data-name="Grupo 477" transform="translate(100.985 437.277)">
            <path id="Trazado_730" data-name="Trazado 730" d="M50.71,117.112l-.109-.061L0,87.836V29.279l.109-.064L50.71,0l.109.064,50.6,29.215V87.836l-.109.061ZM.44,87.58l50.27,29.026L100.982,87.58V29.532L50.71.506.44,29.532Z" transform="translate(0 0)" fill="#fff"/>
          </g>
          <g id="Grupo_478" data-name="Grupo 478" transform="translate(201.968 437.277)">
            <path id="Trazado_731" data-name="Trazado 731" d="M50.712,117.112l-.109-.061L0,87.836V29.279l.112-.064L50.712,0l.109.064,50.6,29.215V87.836l-.109.061ZM.44,87.58l50.273,29.026L100.985,87.58V29.532L50.712.506.44,29.532Z" transform="translate(0 0)" fill="#fff"/>
          </g>
          <g id="Grupo_479" data-name="Grupo 479" transform="translate(302.953 437.277)">
            <path id="Trazado_732" data-name="Trazado 732" d="M50.712,117.112l-.109-.061L0,87.836V29.279l.109-.064L50.712,0l.109.064,50.6,29.215V87.836l-.109.061ZM.44,87.58l50.273,29.026L100.985,87.58V29.532L50.712.506.44,29.532Z" transform="translate(0 0)" fill="#fff"/>
          </g>
          <g id="Grupo_480" data-name="Grupo 480" transform="translate(908.861 459.271)">
            <path id="Trazado_733" data-name="Trazado 733" d="M12.616,72.618.439,65.588V7.537L12.616.507V0L.11,7.22,0,7.284V65.841l12.616,7.284Z" transform="translate(0 0)" fill="#fff"/>
          </g>
          <g id="Grupo_481" data-name="Grupo 481" transform="translate(50.494 524.732)">
            <path id="Trazado_734" data-name="Trazado 734" d="M50.71,117.112l-.109-.061L0,87.836V29.279l.109-.064L50.71,0l.112.064,50.6,29.215V87.836l-.112.061ZM.437,87.58,50.71,116.606,100.982,87.58V29.532L50.71.506.437,29.532Z" transform="translate(0 0)" fill="#fff"/>
          </g>
          <g id="Grupo_482" data-name="Grupo 482" transform="translate(151.476 524.732)">
            <path id="Trazado_735" data-name="Trazado 735" d="M50.712,117.112l-.109-.061L0,87.836V29.279l.109-.064L50.712,0l.109.064,50.6,29.215V87.836l-.109.061ZM.44,87.58l50.273,29.026L100.985,87.58V29.532L50.712.506.44,29.532Z" transform="translate(0 0)" fill="#fff"/>
          </g>
          <g id="Grupo_483" data-name="Grupo 483" transform="translate(252.461 524.732)">
            <path id="Trazado_736" data-name="Trazado 736" d="M50.712,117.112l-.112-.061L0,87.836V29.279l.109-.064L50.712,0l.109.064,50.6,29.215V87.836l-.109.061ZM.437,87.58l50.275,29.026L100.985,87.58V29.532L50.712.506.437,29.532Z" transform="translate(0 0)" fill="#fff"/>
          </g>
          <g id="Grupo_484" data-name="Grupo 484" transform="translate(0.001 612.187)">
            <path id="Trazado_737" data-name="Trazado 737" d="M.439,62.335v-32.8L50.712.507l50.273,29.025v32.8h.439V29.278L50.821.063,50.712,0,.109,29.215,0,29.278V62.335Z" transform="translate(0 0)" fill="#fff"/>
          </g>
          <g id="Grupo_485" data-name="Grupo 485" transform="translate(100.986 612.187)">
            <path id="Trazado_738" data-name="Trazado 738" d="M.439,62.335v-32.8L50.71.507l50.274,29.025v32.8h.438V29.278L50.82.063,50.71,0,.109,29.215,0,29.278V62.335Z" transform="translate(0 0)" fill="#fff"/>
          </g>
          <g id="Grupo_486" data-name="Grupo 486" transform="translate(201.969 612.187)">
            <path id="Trazado_739" data-name="Trazado 739" d="M.438,62.335v-32.8L50.711.507l50.274,29.025v32.8h.438V29.278L50.821.063,50.711,0,.109,29.215,0,29.278V62.335Z" transform="translate(0 0)" fill="#fff"/>
          </g>
          <g id="Grupo_487" data-name="Grupo 487" transform="translate(302.954 612.187)">
            <path id="Trazado_740" data-name="Trazado 740" d="M.438,62.335v-32.8L50.711.507l50.273,29.025v32.8h.438V29.278L50.821.063,50.711,0,.109,29.215,0,29.278V62.335Z" transform="translate(0 0)" fill="#fff"/>
          </g>
          <g id="Grupo_488" data-name="Grupo 488" transform="translate(706.893 612.187)">
            <path id="Trazado_741" data-name="Trazado 741" d="M.439,62.335v-32.8L50.712.507l50.273,29.025v32.8h.439V29.278L50.821.063,50.712,0,.11,29.215,0,29.278V62.335Z" transform="translate(0 0)" fill="#fff"/>
          </g>
          <g id="Grupo_489" data-name="Grupo 489" transform="translate(807.877 612.187)">
            <path id="Trazado_742" data-name="Trazado 742" d="M.439,62.335v-32.8L50.71.507l50.273,29.025v32.8h.439V29.278L50.82.063,50.71,0,.109,29.215,0,29.278V62.335Z" transform="translate(0 0)" fill="#fff"/>
          </g>
        </g>
        <g id="Grupo_524" data-name="Grupo 524">
          <g id="Grupo_491" data-name="Grupo 491" transform="translate(623.015 0)">
            <path id="Trazado_743" data-name="Trazado 743" d="M131.611,0V49.676L66.949,87.008,2.286,49.676V0H0V50.995L66.949,89.647,133.9,50.995V0Z" fill="#fff"/>
          </g>
          <g id="Grupo_492" data-name="Grupo 492" transform="translate(754.626 0)">
            <path id="Trazado_744" data-name="Trazado 744" d="M131.611,0V49.676L66.949,87.008,2.286,49.676V0H0V50.995L66.949,89.647,133.9,50.995V0Z" fill="#fff"/>
          </g>
          <g id="Grupo_493" data-name="Grupo 493" transform="translate(886.237 0)">
            <path id="Trazado_745" data-name="Trazado 745" d="M2.286,49.676V0H0V50.995L66.947,89.647,98.212,71.6V68.957L66.947,87.008Z" fill="#fff"/>
          </g>
          <g id="Grupo_494" data-name="Grupo 494" transform="translate(688.822 49.017)">
            <path id="Trazado_746" data-name="Trazado 746" d="M66.946,154.606,0,115.956V38.65L66.946,0l66.949,38.65v77.306ZM2.286,114.637l64.66,37.332,64.663-37.332V39.969L66.946,2.637,2.286,39.969Z" transform="translate(0 0)" fill="#fff"/>
          </g>
          <g id="Grupo_495" data-name="Grupo 495" transform="translate(820.431 49.017)">
            <path id="Trazado_747" data-name="Trazado 747" d="M66.949,154.606,0,115.956V38.65L66.949,0l66.946,38.65v77.306ZM2.286,114.637l64.663,37.332,64.66-37.332V39.969L66.949,2.637,2.286,39.969Z" transform="translate(0 0)" fill="#fff"/>
          </g>
          <g id="Grupo_496" data-name="Grupo 496" transform="translate(952.041 68.957)">
            <path id="Trazado_748" data-name="Trazado 748" d="M32.408,112.088,2.285,94.7V20.03L32.408,2.639V0L0,18.711V96.016l32.408,18.711Z" transform="translate(0 0)" fill="#fff"/>
          </g>
          <g id="Grupo_497" data-name="Grupo 497" transform="translate(754.625 162.994)">
            <path id="Trazado_749" data-name="Trazado 749" d="M66.949,154.609,0,115.956v-77.3L66.949,0,133.9,38.653v77.3ZM2.286,114.637l64.663,37.332,64.663-37.332V39.972L66.949,2.64,2.286,39.972Z" transform="translate(0 0)" fill="#fff"/>
          </g>
          <g id="Grupo_498" data-name="Grupo 498" transform="translate(886.237 162.994)">
            <path id="Trazado_750" data-name="Trazado 750" d="M98.212,133.919,66.947,151.97,2.286,114.637V39.971L66.947,2.638,98.212,20.69V18.051L66.947,0,0,38.652v77.3l66.947,38.652,31.265-18.051Z" transform="translate(0 0)" fill="#fff"/>
          </g>
          <g id="Grupo_499" data-name="Grupo 499" transform="translate(0 296.54)">
            <path id="Trazado_751" data-name="Trazado 751" d="M0,0V2.639L30.767,20.4V95.069L0,112.833v2.639L33.053,96.389V19.083Z" fill="#fff"/>
          </g>
          <g id="Grupo_500" data-name="Grupo 500" transform="translate(30.766 276.971)">
            <path id="Trazado_752" data-name="Trazado 752" d="M66.949,154.609,0,115.959V38.653L66.949,0,133.9,38.653v77.306ZM2.286,114.637l64.663,37.334,64.663-37.334V39.972L66.949,2.64,2.286,39.972Z" transform="translate(0 0)" fill="#fff"/>
          </g>
          <g id="Grupo_501" data-name="Grupo 501" transform="translate(162.378 276.971)">
            <path id="Trazado_753" data-name="Trazado 753" d="M66.949,154.609,0,115.959V38.653L66.949,0,133.9,38.653v77.306ZM2.286,114.637l64.663,37.334,64.663-37.334V39.972L66.949,2.64,2.286,39.972Z" transform="translate(0 0)" fill="#fff"/>
          </g>
          <g id="Grupo_502" data-name="Grupo 502" transform="translate(952.041 296.913)">
            <path id="Trazado_754" data-name="Trazado 754" d="M32.408,112.088,2.285,94.7V20.03L32.408,2.639V0L0,18.711V96.016l32.408,18.711Z" transform="translate(0 0)" fill="#fff"/>
          </g>
          <g id="Grupo_503" data-name="Grupo 503" transform="translate(0 390.95)">
            <path id="Trazado_755" data-name="Trazado 755" d="M31.91,0,0,18.423v2.639L31.91,2.638,96.572,39.971v74.666L31.91,151.97,0,133.547v2.639l31.91,18.424,66.948-38.652v-77.3Z" transform="translate(0 0)" fill="#fff"/>
          </g>
          <g id="Grupo_504" data-name="Grupo 504" transform="translate(96.572 390.95)">
            <path id="Trazado_756" data-name="Trazado 756" d="M66.949,154.609,0,115.956V38.65L66.949,0,133.9,38.65v77.306ZM2.286,114.637l64.663,37.332,64.663-37.332V39.972L66.949,2.637,2.286,39.972Z" transform="translate(0 0)" fill="#fff"/>
          </g>
          <g id="Grupo_505" data-name="Grupo 505" transform="translate(228.184 390.95)">
            <path id="Trazado_757" data-name="Trazado 757" d="M66.949,154.609,0,115.956V38.65L66.949,0,133.9,38.65v77.306ZM2.286,114.637l64.663,37.332,64.66-37.332V39.972L66.949,2.637,2.286,39.972Z" transform="translate(0 0)" fill="#fff"/>
          </g>
          <g id="Grupo_506" data-name="Grupo 506" transform="translate(0 524.496)">
            <path id="Trazado_758" data-name="Trazado 758" d="M0,0V2.639L30.767,20.4V95.069L0,112.833v2.639L33.053,96.388v-77.3Z" fill="#fff"/>
          </g>
          <g id="Grupo_507" data-name="Grupo 507" transform="translate(30.766 504.927)">
            <path id="Trazado_759" data-name="Trazado 759" d="M66.949,154.609,0,115.959V38.653L66.949,0,133.9,38.653v77.306ZM2.286,114.638l64.663,37.334,64.663-37.334V39.972L66.949,2.64,2.286,39.972Z" transform="translate(0 0)" fill="#fff"/>
          </g>
          <g id="Grupo_508" data-name="Grupo 508" transform="translate(162.378 504.927)">
            <path id="Trazado_760" data-name="Trazado 760" d="M66.949,154.609,0,115.959V38.653L66.949,0,133.9,38.653v77.306ZM2.286,114.638l64.663,37.334,64.663-37.334V39.972L66.949,2.64,2.286,39.972Z" transform="translate(0 0)" fill="#fff"/>
          </g>
          <g id="Grupo_509" data-name="Grupo 509" transform="translate(820.431 504.927)">
            <path id="Trazado_761" data-name="Trazado 761" d="M66.949,154.609,0,115.959V38.653L66.949,0l66.946,38.653v77.306ZM2.286,114.638l64.663,37.334,64.66-37.334V39.972L66.949,2.64,2.286,39.972Z" transform="translate(0 0)" fill="#fff"/>
          </g>
          <g id="Grupo_510" data-name="Grupo 510" transform="translate(0 618.906)">
            <path id="Trazado_762" data-name="Trazado 762" d="M0,2.639,22.771,15.786h4.57L0,0Z" transform="translate(0 133.547)" fill="#fff"/>
            <path id="Trazado_763" data-name="Trazado 763" d="M31.91,0,0,18.424v2.639L31.91,2.639,96.572,39.971v74.666L36.479,149.332h4.57l57.809-33.375V38.652Z" transform="translate(0 0)" fill="#fff"/>
          </g>
          <g id="Grupo_511" data-name="Grupo 511" transform="translate(96.572 618.906)">
            <path id="Trazado_764" data-name="Trazado 764" d="M62.379,149.332,2.286,114.638V39.971L66.949,2.639l64.662,37.333v74.666L71.518,149.332h4.57L133.9,115.957V38.652L66.949,0,0,38.652v77.305l57.809,33.375Z" transform="translate(0 0)" fill="#fff"/>
          </g>
          <g id="Grupo_512" data-name="Grupo 512" transform="translate(228.183 618.906)">
            <path id="Trazado_765" data-name="Trazado 765" d="M62.379,149.332,2.286,114.638V39.971L66.949,2.639l64.662,37.333v74.666L71.518,149.332h4.57L133.9,115.957V38.652L66.949,0,0,38.652v77.305l57.809,33.375Z" transform="translate(0 0)" fill="#fff"/>
          </g>
          <g id="Grupo_513" data-name="Grupo 513" transform="translate(754.626 618.906)">
            <path id="Trazado_766" data-name="Trazado 766" d="M62.379,149.332,2.286,114.638V39.971L66.949,2.639l64.662,37.333v74.666L71.518,149.332h4.57L133.9,115.957V38.652L66.949,0,0,38.652v77.305l57.81,33.375Z" transform="translate(0 0)" fill="#fff"/>
          </g>
          <g id="Grupo_514" data-name="Grupo 514" transform="translate(886.237 618.906)">
            <path id="Trazado_767" data-name="Trazado 767" d="M66.947,2.639,98.212,20.69V18.051L66.947,0,0,38.652v77.305l57.807,33.375h4.57L2.286,114.638V39.971Z" transform="translate(0 0)" fill="#fff"/>
            <path id="Trazado_768" data-name="Trazado 768" d="M26.7,0,0,15.413H4.57L26.7,2.639Z" transform="translate(71.516 133.919)" fill="#fff"/>
          </g>
          <g id="Grupo_515" data-name="Grupo 515" transform="translate(0 752.453)">
            <path id="Trazado_769" data-name="Trazado 769" d="M0,0V2.639L22.77,15.786h4.571Z" fill="#fff"/>
          </g>
          <g id="Grupo_516" data-name="Grupo 516" transform="translate(36.478 732.884)">
            <path id="Trazado_770" data-name="Trazado 770" d="M4.571,35.354,61.237,2.638,117.9,35.354h4.571L61.237,0,0,35.354Z" transform="translate(0 0)" fill="#fff"/>
          </g>
          <g id="Grupo_517" data-name="Grupo 517" transform="translate(168.089 732.884)">
            <path id="Trazado_771" data-name="Trazado 771" d="M4.571,35.354,61.237,2.638,117.9,35.354h4.571L61.237,0,0,35.354Z" transform="translate(0 0)" fill="#fff"/>
          </g>
          <g id="Grupo_518" data-name="Grupo 518" transform="translate(299.7 732.884)">
            <path id="Trazado_772" data-name="Trazado 772" d="M4.571,35.354,61.237,2.638,117.9,35.354h4.571L61.237,0,0,35.354Z" transform="translate(0 0)" fill="#fff"/>
          </g>
          <g id="Grupo_519" data-name="Grupo 519" transform="translate(431.311 732.884)">
            <path id="Trazado_773" data-name="Trazado 773" d="M4.571,35.354,61.237,2.638,117.9,35.354h4.571L61.237,0,0,35.354Z" transform="translate(0 0)" fill="#fff"/>
          </g>
          <g id="Grupo_520" data-name="Grupo 520" transform="translate(562.922 732.884)">
            <path id="Trazado_774" data-name="Trazado 774" d="M4.571,35.354,61.237,2.638,117.9,35.354h4.571L61.237,0,0,35.354Z" transform="translate(0 0)" fill="#fff"/>
          </g>
          <g id="Grupo_521" data-name="Grupo 521" transform="translate(694.532 732.884)">
            <path id="Trazado_775" data-name="Trazado 775" d="M4.571,35.354,61.237,2.638,117.9,35.354h4.571L61.237,0,0,35.354Z" transform="translate(0 0)" fill="#fff"/>
          </g>
          <g id="Grupo_522" data-name="Grupo 522" transform="translate(826.143 732.884)">
            <path id="Trazado_776" data-name="Trazado 776" d="M4.571,35.354,61.237,2.638,117.9,35.354h4.57L61.237,0,0,35.354Z" transform="translate(0 0)" fill="#fff"/>
          </g>
          <g id="Grupo_523" data-name="Grupo 523" transform="translate(957.752 752.825)">
            <path id="Trazado_777" data-name="Trazado 777" d="M26.7,0,0,15.413H4.57L26.7,2.639Z" transform="translate(0 0)" fill="#fff"/>
          </g>
        </g>
        <g id="Grupo_525" data-name="Grupo 525" transform="translate(58.951 90.022)">
          <path id="Trazado_778" data-name="Trazado 778" d="M3.631,7.262A3.631,3.631,0,1,0,0,3.631,3.63,3.63,0,0,0,3.631,7.262Z" transform="translate(101.594 116.923)" fill="#fff"/>
          <path id="Trazado_779" data-name="Trazado 779" d="M.615,1.225A.613.613,0,1,0,0,.613.613.613,0,0,0,.615,1.225Z" transform="translate(407.565 3.335)" fill="#fff"/>
          <path id="Trazado_780" data-name="Trazado 780" d="M6.963,0a6.962,6.962,0,1,0,6.963,6.961A6.963,6.963,0,0,0,6.963,0Z" transform="translate(451.708 26.138)" fill="#fff"/>
          <path id="Trazado_781" data-name="Trazado 781" d="M4.358,8.716A4.358,4.358,0,1,0,0,4.358,4.357,4.357,0,0,0,4.358,8.716Z" transform="translate(454.313 87.045)" fill="#fff"/>
          <path id="Trazado_782" data-name="Trazado 782" d="M3.919,7.84A3.92,3.92,0,1,0,0,3.919,3.921,3.921,0,0,0,3.919,7.84Z" transform="translate(505.244 116.635)" fill="#fff"/>
          <circle id="Elipse_114" data-name="Elipse 114" cx="2.02" cy="2.02" r="2.02" transform="translate(507.143 1.928)" fill="#fff"/>
          <path id="Trazado_783" data-name="Trazado 783" d="M4,7.989a3.994,3.994,0,1,0-4-4A3.995,3.995,0,0,0,4,7.989Z" transform="translate(555.66 29.106)" fill="#fff"/>
          <path id="Trazado_784" data-name="Trazado 784" d="M7.014,0a7.014,7.014,0,1,0,7.014,7.014A7.015,7.015,0,0,0,7.014,0Z" transform="translate(552.642 84.389)" fill="#fff"/>
          <path id="Trazado_785" data-name="Trazado 785" d="M2.957,5.914A2.957,2.957,0,1,0,0,2.957,2.957,2.957,0,0,0,2.957,5.914Z" transform="translate(607.19 0.991)" fill="#fff"/>
          <path id="Trazado_786" data-name="Trazado 786" d="M5.45,10.9A5.449,5.449,0,1,0,0,5.448,5.45,5.45,0,0,0,5.45,10.9Z" transform="translate(655.191 27.651)" fill="#fff"/>
          <circle id="Elipse_115" data-name="Elipse 115" cx="6.503" cy="6.503" r="6.503" transform="translate(654.137 84.9)" fill="#fff"/>
          <path id="Trazado_787" data-name="Trazado 787" d="M3.4,6.8A3.4,3.4,0,1,0,0,3.4,3.4,3.4,0,0,0,3.4,6.8Z" transform="translate(707.733 0.549)" fill="#fff"/>
          <path id="Trazado_788" data-name="Trazado 788" d="M3.908,7.818A3.909,3.909,0,1,0,0,3.908,3.91,3.91,0,0,0,3.908,7.818Z" transform="translate(757.716 29.191)" fill="#fff"/>
          <circle id="Elipse_116" data-name="Elipse 116" cx="2.787" cy="2.787" r="2.787" transform="translate(758.838 88.616)" fill="#fff"/>
          <path id="Trazado_789" data-name="Trazado 789" d="M2.626,5.253A2.627,2.627,0,1,0,0,2.627,2.625,2.625,0,0,0,2.626,5.253Z" transform="translate(809.491 1.321)" fill="#fff"/>
          <path id="Trazado_790" data-name="Trazado 790" d="M4.137,8.277A4.138,4.138,0,1,0,0,4.137,4.141,4.141,0,0,0,4.137,8.277Z" transform="translate(858.472 28.962)" fill="#fff"/>
          <circle id="Elipse_117" data-name="Elipse 117" cx="4.7" cy="4.7" r="4.7" transform="translate(857.91 86.703)" fill="#fff"/>
          <path id="Trazado_791" data-name="Trazado 791" d="M3.948,7.9A3.948,3.948,0,1,0,0,3.948,3.95,3.95,0,0,0,3.948,7.9Z" transform="translate(909.155 0)" fill="#fff"/>
          <path id="Trazado_792" data-name="Trazado 792" d="M4.646,0A4.644,4.644,0,1,0,9.289,4.643,4.644,4.644,0,0,0,4.646,0Z" transform="translate(50.088 203.366)" fill="#fff"/>
          <circle id="Elipse_118" data-name="Elipse 118" cx="2.923" cy="2.923" r="2.923" transform="translate(1.317 175.935)" fill="#fff"/>
          <path id="Trazado_793" data-name="Trazado 793" d="M2.216,4.435A2.218,2.218,0,1,0,0,2.216,2.219,2.219,0,0,0,2.216,4.435Z" transform="translate(2.023 118.338)" fill="#fff"/>
          <circle id="Elipse_119" data-name="Elipse 119" cx="6.79" cy="6.79" r="6.79" transform="translate(47.943 84.613)" fill="#fff"/>
          <path id="Trazado_794" data-name="Trazado 794" d="M5.706,11.417A5.709,5.709,0,1,0,0,5.709,5.711,5.711,0,0,0,5.706,11.417Z" transform="translate(99.519 173.15)" fill="#fff"/>
          <path id="Trazado_795" data-name="Trazado 795" d="M5.264,10.533A5.266,5.266,0,1,0,0,5.266,5.266,5.266,0,0,0,5.264,10.533Z" transform="translate(503.898 173.592)" fill="#fff"/>
          <path id="Trazado_796" data-name="Trazado 796" d="M2.693,0A2.692,2.692,0,1,0,5.386,2.691,2.692,2.692,0,0,0,2.693,0Z" transform="translate(607.454 117.863)" fill="#fff"/>
          <path id="Trazado_797" data-name="Trazado 797" d="M4.995,9.99A4.995,4.995,0,1,0,0,4.995,5,5,0,0,0,4.995,9.99Z" transform="translate(605.153 173.864)" fill="#fff"/>
          <circle id="Elipse_120" data-name="Elipse 120" cx="3.153" cy="3.153" r="3.153" transform="translate(657.487 204.857)" fill="#fff"/>
          <path id="Trazado_798" data-name="Trazado 798" d="M7.379,0a7.379,7.379,0,1,0,7.379,7.379A7.38,7.38,0,0,0,7.379,0Z" transform="translate(703.753 113.175)" fill="#fff"/>
          <path id="Trazado_799" data-name="Trazado 799" d="M5.474,10.946A5.473,5.473,0,1,0,0,5.472,5.472,5.472,0,0,0,5.474,10.946Z" transform="translate(806.643 115.082)" fill="#fff"/>
          <path id="Trazado_800" data-name="Trazado 800" d="M5.453,10.909A5.454,5.454,0,1,0,0,5.453,5.456,5.456,0,0,0,5.453,10.909Z" transform="translate(857.156 202.556)" fill="#fff"/>
          <path id="Trazado_801" data-name="Trazado 801" d="M6.431,12.861A6.431,6.431,0,1,0,0,6.431,6.431,6.431,0,0,0,6.431,12.861Z" transform="translate(805.687 172.428)" fill="#fff"/>
          <path id="Trazado_802" data-name="Trazado 802" d="M5.85,11.7A5.849,5.849,0,1,0,0,5.847,5.849,5.849,0,0,0,5.85,11.7Z" transform="translate(907.253 114.707)" fill="#fff"/>
          <path id="Trazado_803" data-name="Trazado 803" d="M8.389,4.193A4.194,4.194,0,1,0,4.2,8.389,4.194,4.194,0,0,0,8.389,4.193Z" transform="translate(555.461 203.816)" fill="#fff"/>
          <circle id="Elipse_121" data-name="Elipse 121" cx="3.382" cy="3.382" r="3.382" transform="translate(707.751 175.477)" fill="#fff"/>
          <path id="Trazado_804" data-name="Trazado 804" d="M3.623,7.246A3.623,3.623,0,1,0,0,3.623,3.622,3.622,0,0,0,3.623,7.246Z" transform="translate(758.001 204.386)" fill="#fff"/>
          <circle id="Elipse_122" data-name="Elipse 122" cx="3.589" cy="3.589" r="3.589" transform="translate(909.513 291.876)" fill="#fff"/>
          <path id="Trazado_805" data-name="Trazado 805" d="M4.672,0A4.672,4.672,0,1,0,9.345,4.672,4.673,4.673,0,0,0,4.672,0Z" transform="translate(857.936 261.641)" fill="#fff"/>
          <circle id="Elipse_123" data-name="Elipse 123" cx="4.468" cy="4.468" r="4.468" transform="translate(908.633 174.39)" fill="#fff"/>
          <path id="Trazado_806" data-name="Trazado 806" d="M5.32,0a5.318,5.318,0,1,0,5.317,5.317A5.319,5.319,0,0,0,5.32,0Z" transform="translate(49.414 377.603)" fill="#fff"/>
          <circle id="Elipse_124" data-name="Elipse 124" cx="0.467" cy="0.467" r="0.467" transform="translate(3.773 353.302)" fill="#fff"/>
          <circle id="Elipse_125" data-name="Elipse 125" cx="4.24" cy="4.24" r="4.24" transform="translate(0 291.225)" fill="#fff"/>
          <path id="Trazado_807" data-name="Trazado 807" d="M3.655,0A3.655,3.655,0,1,0,7.31,3.655,3.654,3.654,0,0,0,3.655,0Z" transform="translate(51.079 262.659)" fill="#fff"/>
          <path id="Trazado_808" data-name="Trazado 808" d="M0,3.306A3.307,3.307,0,1,0,3.309,0,3.308,3.308,0,0,0,0,3.306Z" transform="translate(152.41 379.614)" fill="#fff"/>
          <path id="Trazado_809" data-name="Trazado 809" d="M5.4,0a5.4,5.4,0,1,0,5.4,5.4A5.4,5.4,0,0,0,5.4,0Z" transform="translate(655.244 260.917)" fill="#fff"/>
          <path id="Trazado_810" data-name="Trazado 810" d="M0,5.6A5.6,5.6,0,1,0,5.6,0,5.6,5.6,0,0,0,0,5.6Z" transform="translate(705.528 289.86)" fill="#fff"/>
          <circle id="Elipse_126" data-name="Elipse 126" cx="3.387" cy="3.387" r="3.387" transform="translate(758.238 379.534)" fill="#fff"/>
          <circle id="Elipse_127" data-name="Elipse 127" cx="4.41" cy="4.41" r="4.41" transform="translate(706.722 349.358)" fill="#fff"/>
          <circle id="Elipse_128" data-name="Elipse 128" cx="4.706" cy="4.706" r="4.706" transform="translate(756.919 261.608)" fill="#fff"/>
          <circle id="Elipse_129" data-name="Elipse 129" cx="6.684" cy="6.684" r="6.684" transform="translate(805.433 347.084)" fill="#fff"/>
          <path id="Trazado_811" data-name="Trazado 811" d="M3.775,7.552A3.776,3.776,0,1,0,0,3.775,3.778,3.778,0,0,0,3.775,7.552Z" transform="translate(858.834 379.145)" fill="#fff"/>
          <path id="Trazado_812" data-name="Trazado 812" d="M6.614,13.226A6.613,6.613,0,1,0,0,6.612,6.614,6.614,0,0,0,6.614,13.226Z" transform="translate(805.503 288.853)" fill="#fff"/>
          <circle id="Elipse_130" data-name="Elipse 130" cx="3" cy="3" r="3" transform="translate(910.102 350.769)" fill="#fff"/>
          <path id="Trazado_813" data-name="Trazado 813" d="M6.439,12.877A6.439,6.439,0,1,0,0,6.439,6.438,6.438,0,0,0,6.439,12.877Z" transform="translate(98.786 347.33)" fill="#fff"/>
          <path id="Trazado_814" data-name="Trazado 814" d="M5.472,10.938A5.469,5.469,0,1,0,0,5.469,5.468,5.468,0,0,0,5.472,10.938Z" transform="translate(150.247 435.755)" fill="#fff"/>
          <path id="Trazado_815" data-name="Trazado 815" d="M5.2,2.6a2.6,2.6,0,1,0-2.6,2.6A2.6,2.6,0,0,0,5.2,2.6Z" transform="translate(254.104 438.627)" fill="#fff"/>
          <path id="Trazado_816" data-name="Trazado 816" d="M5.029,10.056A5.028,5.028,0,1,0,0,5.027,5.028,5.028,0,0,0,5.029,10.056Z" transform="translate(302.165 465.348)" fill="#fff"/>
          <path id="Trazado_817" data-name="Trazado 817" d="M9.713,4.856A4.856,4.856,0,1,0,4.856,9.713,4.856,4.856,0,0,0,9.713,4.856Z" transform="translate(352.83 436.368)" fill="#fff"/>
          <path id="Trazado_818" data-name="Trazado 818" d="M5.685,11.367A5.683,5.683,0,1,0,0,5.682,5.683,5.683,0,0,0,5.685,11.367Z" transform="translate(402.495 464.693)" fill="#fff"/>
          <circle id="Elipse_131" data-name="Elipse 131" cx="3.276" cy="3.276" r="3.276" transform="translate(51.456 554.555)" fill="#fff"/>
          <circle id="Elipse_132" data-name="Elipse 132" cx="2.616" cy="2.616" r="2.616" transform="translate(1.625 526.064)" fill="#fff"/>
          <path id="Trazado_819" data-name="Trazado 819" d="M0,1.239A1.24,1.24,0,1,0,1.239,0,1.24,1.24,0,0,0,0,1.239Z" transform="translate(3.001 469.136)" fill="#fff"/>
          <circle id="Elipse_133" data-name="Elipse 133" cx="5.134" cy="5.134" r="5.134" transform="translate(49.599 436.09)" fill="#fff"/>
          <path id="Trazado_820" data-name="Trazado 820" d="M0,4.23A4.232,4.232,0,1,0,4.23,0,4.23,4.23,0,0,0,0,4.23Z" transform="translate(100.994 524.449)" fill="#fff"/>
          <path id="Trazado_821" data-name="Trazado 821" d="M5.8,2.9A2.9,2.9,0,1,0,2.9,5.8,2.9,2.9,0,0,0,5.8,2.9Z" transform="translate(102.324 467.474)" fill="#fff"/>
          <path id="Trazado_822" data-name="Trazado 822" d="M2.376,0A2.376,2.376,0,1,0,4.752,2.376,2.377,2.377,0,0,0,2.376,0Z" transform="translate(203.833 467.999)" fill="#fff"/>
          <path id="Trazado_823" data-name="Trazado 823" d="M0,4A4,4,0,1,0,4,0,4,4,0,0,0,0,4Z" transform="translate(252.702 553.832)" fill="#fff"/>
          <path id="Trazado_824" data-name="Trazado 824" d="M5.759,0a5.759,5.759,0,1,0,5.759,5.759A5.759,5.759,0,0,0,5.759,0Z" transform="translate(200.45 522.92)" fill="#fff"/>
          <path id="Trazado_825" data-name="Trazado 825" d="M6.217,12.43A6.215,6.215,0,1,0,0,6.215,6.215,6.215,0,0,0,6.217,12.43Z" transform="translate(401.962 522.464)" fill="#fff"/>
          <path id="Trazado_826" data-name="Trazado 826" d="M3.111,0A3.114,3.114,0,1,0,6.225,3.114,3.114,3.114,0,0,0,3.111,0Z" transform="translate(758.512 554.716)" fill="#fff"/>
          <path id="Trazado_827" data-name="Trazado 827" d="M3.634,7.272A3.636,3.636,0,1,0,0,3.636,3.636,3.636,0,0,0,3.634,7.272Z" transform="translate(757.99 437.588)" fill="#fff"/>
          <path id="Trazado_828" data-name="Trazado 828" d="M7.1,0a7.1,7.1,0,1,0,7.1,7.1A7.1,7.1,0,0,0,7.1,0Z" transform="translate(805.018 463.276)" fill="#fff"/>
          <path id="Trazado_829" data-name="Trazado 829" d="M3.86,7.72A3.86,3.86,0,1,0,0,3.86,3.861,3.861,0,0,0,3.86,7.72Z" transform="translate(858.749 437.364)" fill="#fff"/>
          <path id="Trazado_830" data-name="Trazado 830" d="M5.783,11.564A5.782,5.782,0,1,0,0,5.781,5.781,5.781,0,0,0,5.783,11.564Z" transform="translate(907.319 464.594)" fill="#fff"/>
          <path id="Trazado_831" data-name="Trazado 831" d="M7.715,0a7.712,7.712,0,1,0,7.712,7.712A7.714,7.714,0,0,0,7.715,0Z" transform="translate(905.388 520.967)" fill="#fff"/>
          <path id="Trazado_832" data-name="Trazado 832" d="M0,3.825A3.827,3.827,0,1,0,3.828,0,3.827,3.827,0,0,0,0,3.825Z" transform="translate(151.89 554.005)" fill="#fff"/>
          <path id="Trazado_833" data-name="Trazado 833" d="M6.265,12.526A6.263,6.263,0,1,0,0,6.263,6.262,6.262,0,0,0,6.265,12.526Z" transform="translate(149.453 609.872)" fill="#fff"/>
          <circle id="Elipse_134" data-name="Elipse 134" cx="6.542" cy="6.542" r="6.542" transform="translate(300.652 522.138)" fill="#fff"/>
          <circle id="Elipse_135" data-name="Elipse 135" cx="2.406" cy="2.406" r="2.406" transform="translate(355.28 555.425)" fill="#fff"/>
          <path id="Trazado_834" data-name="Trazado 834" d="M4.827,9.651A4.826,4.826,0,1,0,0,4.824,4.826,4.826,0,0,0,4.827,9.651Z" transform="translate(403.353 640.461)" fill="#fff"/>
          <circle id="Elipse_136" data-name="Elipse 136" cx="7.378" cy="7.378" r="7.378" transform="translate(350.309 608.757)" fill="#fff"/>
          <path id="Trazado_835" data-name="Trazado 835" d="M8.383,4.19A4.192,4.192,0,1,0,4.19,8.381,4.192,4.192,0,0,0,8.383,4.19Z" transform="translate(757.433 611.944)" fill="#fff"/>
          <path id="Trazado_836" data-name="Trazado 836" d="M5.458,10.919A5.46,5.46,0,1,0,0,5.458,5.462,5.462,0,0,0,5.458,10.919Z" transform="translate(857.151 552.372)" fill="#fff"/>
          <path id="Trazado_837" data-name="Trazado 837" d="M5.453,0a5.453,5.453,0,1,0,5.453,5.453A5.455,5.455,0,0,0,5.453,0Z" transform="translate(857.156 610.682)" fill="#fff"/>
          <path id="Trazado_838" data-name="Trazado 838" d="M1.931.964a.966.966,0,1,0-.967.967A.965.965,0,0,0,1.931.964Z" transform="translate(3.275 644.321)" fill="#fff"/>
          <path id="Trazado_839" data-name="Trazado 839" d="M3.149,0A3.147,3.147,0,1,0,6.295,3.146,3.146,3.146,0,0,0,3.149,0Z" transform="translate(51.585 612.988)" fill="#fff"/>
          <path id="Trazado_840" data-name="Trazado 840" d="M8.034,0a8.036,8.036,0,1,0,8.034,8.034A8.035,8.035,0,0,0,8.034,0Z" transform="translate(97.19 637.251)" fill="#fff"/>
          <path id="Trazado_841" data-name="Trazado 841" d="M4.851,0A4.852,4.852,0,1,0,9.7,4.851,4.85,4.85,0,0,0,4.851,0Z" transform="translate(201.359 640.434)" fill="#fff"/>
          <path id="Trazado_842" data-name="Trazado 842" d="M5.522,11.044A5.522,5.522,0,1,0,0,5.522,5.524,5.524,0,0,0,5.522,11.044Z" transform="translate(251.179 610.612)" fill="#fff"/>
          <path id="Trazado_843" data-name="Trazado 843" d="M12.635,6.316a6.317,6.317,0,1,0-6.316,6.319A6.318,6.318,0,0,0,12.635,6.316Z" transform="translate(300.876 638.969)" fill="#fff"/>
          <path id="Trazado_844" data-name="Trazado 844" d="M4.337,8.676A4.338,4.338,0,1,0,0,4.337,4.338,4.338,0,0,0,4.337,8.676Z" transform="translate(706.796 640.948)" fill="#fff"/>
          <path id="Trazado_845" data-name="Trazado 845" d="M4.8,9.6A4.8,4.8,0,1,0,0,4.8,4.8,4.8,0,0,0,4.8,9.6Z" transform="translate(807.317 640.488)" fill="#fff"/>
        </g>
      </g>
    </g>
  </g>
</svg>
