<svg xmlns="http://www.w3.org/2000/svg" width="241" height="80.756" viewBox="0 0 241 80.756">
  <g id="logoWhite" transform="translate(-514.696 -692.663)">
    <g id="Grupo_1" data-name="Grupo 1" transform="translate(514.696 716.653)">
      <path id="Trazado_1" data-name="Trazado 1" d="M515.307,807.939q-.234-4.425-.611-7.22a25.388,25.388,0,0,0,10.364,2.59,10.411,10.411,0,0,0,3.479-.568,4.9,4.9,0,0,0,2.387-1.6,3.774,3.774,0,0,0,.771-2.314,4.112,4.112,0,0,0-.371-1.776,8.207,8.207,0,0,0-1.855-2.241q-1.664-1.6-5.938-5.269-2.037-1.775-2.811-2.533a20.8,20.8,0,0,1-2.678-2.984,9.505,9.505,0,0,1-1.339-2.635,9.527,9.527,0,0,1,1.121-7.933A10.085,10.085,0,0,1,522.4,769.7a18.929,18.929,0,0,1,7.671-1.354,49.357,49.357,0,0,1,9.374,1.019q.145,3.029.582,6.929a23.422,23.422,0,0,0-8.368-1.747,7.842,7.842,0,0,0-4.663,1.3,3.69,3.69,0,0,0-1.816,3.013,4.032,4.032,0,0,0,.126.975,4.417,4.417,0,0,0,.38.99,7.746,7.746,0,0,0,.9,1.252,15.058,15.058,0,0,0,1.9,1.805q1.25,1.034,2.136,1.674l3.592,3.26q1.366,1.135,2.441,2.213a22.492,22.492,0,0,1,1.845,2.067,10.738,10.738,0,0,1,1.206,1.892,8.591,8.591,0,0,1,.872,3.843,9.81,9.81,0,0,1-1.135,4.614,9.488,9.488,0,0,1-3.261,3.566,13.509,13.509,0,0,1-4.658,1.936,25.7,25.7,0,0,1-5.357.539,34.36,34.36,0,0,1-4.338-.32Q519.354,808.841,515.307,807.939Z" transform="translate(-514.696 -768.346)" fill="#fff"/>
    </g>
    <g id="Grupo_2" data-name="Grupo 2" transform="translate(543.913 731.434)">
      <path id="Trazado_2" data-name="Trazado 2" d="M610.234,821.088q.347-1.781.433-2.5t.309-2.177a57.487,57.487,0,0,1,5.938-1.114,40.145,40.145,0,0,1,4.973-.321,18.671,18.671,0,0,1,5,.631,7.443,7.443,0,0,1,3.563,2.016,5.647,5.647,0,0,1,1.287,3.983q0,1.41-.394,7.187t-.467,11.937q-1.882-.049-3.466-.05-1.511,0-3.541.05.326-2.993.525-6.927l.326-6.16a15.531,15.531,0,0,1-1.436.866,8.835,8.835,0,0,1-1.115.458q-.619.211-2.179.644t-2.5.754a11.207,11.207,0,0,0-1.7.73,5.688,5.688,0,0,0-1.276.915,3.3,3.3,0,0,0-.755,1.064,3.048,3.048,0,0,0-.235,1.2,2.776,2.776,0,0,0,.606,1.794,3.161,3.161,0,0,0,1.522,1.051,6.992,6.992,0,0,0,2.152.3,11.923,11.923,0,0,0,1.67-.124,14.222,14.222,0,0,0,2.363-.618,42.926,42.926,0,0,0-1.212,4.206q-1.757.3-2.8.371t-1.93.075a13.344,13.344,0,0,1-5.121-.841,5.693,5.693,0,0,1-2.956-2.672,7.915,7.915,0,0,1-.952-3.686,6.308,6.308,0,0,1,1.461-4.008,9.528,9.528,0,0,1,1.857-1.67,13.709,13.709,0,0,1,3.292-1.558,49.623,49.623,0,0,1,5.694-1.522q.94-.2,1.955-.482a11.877,11.877,0,0,0,1.622-.557,3.616,3.616,0,0,0,1.052-.7,2.953,2.953,0,0,0,.656-.9,2.337,2.337,0,0,0,.211-.965,2.289,2.289,0,0,0-.631-1.633,3.342,3.342,0,0,0-1.634-.928,8.822,8.822,0,0,0-2.216-.26A27.33,27.33,0,0,0,610.234,821.088Z" transform="translate(-606.87 -814.977)" fill="#fff"/>
      <path id="Trazado_3" data-name="Trazado 3" d="M698.222,845.951a31.617,31.617,0,0,0,9.648,1.831,11.025,11.025,0,0,0,2.944-.383,6.66,6.66,0,0,0,2.326-1.111,4.746,4.746,0,0,0,1.46-1.975,10.338,10.338,0,0,0,.693-2.888q.173-1.641.272-4.974a15.777,15.777,0,0,1-1.732,2.041,8.542,8.542,0,0,1-1.843,1.311,10.766,10.766,0,0,1-2.511.94,12.888,12.888,0,0,1-7.149-.322,9.461,9.461,0,0,1-3.476-2.14,9.361,9.361,0,0,1-2.313-3.674,13.59,13.59,0,0,1-.792-4.614,16.52,16.52,0,0,1,1.3-6.507,12.526,12.526,0,0,1,3.81-5.047,14.53,14.53,0,0,1,5.369-2.721,25.23,25.23,0,0,1,6.346-.742q1.93,0,4.379.235t6.481.953l-.57,7.837-.52,9.815-.2,8.875a18.266,18.266,0,0,1-.371,2.905,8.686,8.686,0,0,1-.94,2.522,7.754,7.754,0,0,1-1.633,1.991,8.352,8.352,0,0,1-2.239,1.4,15.179,15.179,0,0,1-3.092.878,21.4,21.4,0,0,1-3.946.346,50.3,50.3,0,0,1-5.121-.3,47.981,47.981,0,0,1-6.258-1.113Zm18.063-25.433a19.771,19.771,0,0,0-3.984-.445,10.793,10.793,0,0,0-5.32,1.177,7.908,7.908,0,0,0-3.242,3.431,10.471,10.471,0,0,0-1.138,4.782,8.587,8.587,0,0,0,.693,3.456,4.914,4.914,0,0,0,2.165,2.416,6.588,6.588,0,0,0,3.254.817,6.916,6.916,0,0,0,2.363-.4,5.855,5.855,0,0,0,1.992-1.214,8.116,8.116,0,0,0,1.572-2.032,8.932,8.932,0,0,0,.965-2.738,33,33,0,0,0,.433-3.816Q716.186,823.666,716.285,820.519Z" transform="translate(-667.575 -814.977)" fill="#fff"/>
    </g>
    <g id="Grupo_3" data-name="Grupo 3" transform="translate(603.797 731.434)">
      <path id="Trazado_4" data-name="Trazado 4" d="M795.791,840.731l.716-11.752.2-6.828q.049-2.1.049-4.23,0-.371-.049-2.35,2.3.05,3.39.049,1.262,0,3.341-.049l-.123,3.488a14.916,14.916,0,0,1,1.608-1.991,7.067,7.067,0,0,1,3.34-1.843,8.655,8.655,0,0,1,4.107,0q0,2.3.223,5.839a10.213,10.213,0,0,0-2.647-.4,6.9,6.9,0,0,0-2.536.433,5.768,5.768,0,0,0-1.98,1.311,7.061,7.061,0,0,0-1.447,2.165,9.8,9.8,0,0,0-.693,2.7q-.193,1.286-.326,4.4t-.133,6.135q0,1.163.075,2.919-1.884-.049-3.444-.05Q797.922,840.681,795.791,840.731Z" transform="translate(-795.791 -814.977)" fill="#fff"/>
      <path id="Trazado_5" data-name="Trazado 5" d="M855.239,821.088q.347-1.781.433-2.5t.309-2.177a57.479,57.479,0,0,1,5.937-1.114,40.153,40.153,0,0,1,4.973-.321,18.67,18.67,0,0,1,5,.631,7.442,7.442,0,0,1,3.563,2.016,5.646,5.646,0,0,1,1.286,3.983q0,1.41-.393,7.187t-.467,11.937q-1.883-.049-3.466-.05-1.511,0-3.541.05.326-2.993.525-6.927l.326-6.16a15.537,15.537,0,0,1-1.436.866,8.832,8.832,0,0,1-1.115.458q-.619.211-2.179.644t-2.5.754a11.189,11.189,0,0,0-1.7.73,5.683,5.683,0,0,0-1.276.915,3.29,3.29,0,0,0-.755,1.064,3.05,3.05,0,0,0-.235,1.2,2.776,2.776,0,0,0,.606,1.794,3.16,3.16,0,0,0,1.521,1.051,6.993,6.993,0,0,0,2.152.3,11.925,11.925,0,0,0,1.67-.124,14.221,14.221,0,0,0,2.363-.618,42.932,42.932,0,0,0-1.212,4.206q-1.757.3-2.8.371t-1.93.075a13.344,13.344,0,0,1-5.121-.841,5.692,5.692,0,0,1-2.956-2.672,7.912,7.912,0,0,1-.953-3.686,6.214,6.214,0,0,1,.371-2.1,6.281,6.281,0,0,1,1.089-1.9,9.544,9.544,0,0,1,1.857-1.67,13.713,13.713,0,0,1,3.292-1.558,49.642,49.642,0,0,1,5.694-1.522q.94-.2,1.955-.482a11.855,11.855,0,0,0,1.622-.557,3.618,3.618,0,0,0,1.052-.7,2.951,2.951,0,0,0,.656-.9,2.336,2.336,0,0,0,.211-.965,2.29,2.29,0,0,0-.631-1.633,3.343,3.343,0,0,0-1.634-.928,8.826,8.826,0,0,0-2.216-.26A27.331,27.331,0,0,0,855.239,821.088Z" transform="translate(-834.098 -814.977)" fill="#fff"/>
    </g>
    <path id="Trazado_6" data-name="Trazado 6" d="M944.211,808.932q1.278-4.222,2.547-8.44.873-3.14,1.73-6.277t1.739-6.281c.53-2.062,1.069-4.118,1.6-6.182s1.061-4.119,1.6-6.177h-2.017c-.635.012-1.261.02-1.887.028-.6.012-1.2.023-1.8.032-2.243.072-4.469.136-6.7.2.774-2.77,1.339-4.884,1.687-6.325q8.294.061,17.387.053,5.19-.018,10.38-.036c1.852-.008,3.7-.02,5.547-.036-.826,2.746-1.382,4.848-1.712,6.326-3.452-.168-6.764-.256-9.964-.252H962.12q-.769,2.641-1.539,5.276c-.9,3.387-1.818,6.774-2.712,10.153s-1.808,6.766-2.7,10.144c-.27,1.137-.557,2.27-.817,3.4-.348,1.409-.687,2.871-1.035,4.392l-4.373-.06c-.478,0-2.052.02-4.729.06Z" transform="translate(-291.189 -52.477)" fill="#fff"/>
    <path id="Trazado_7" data-name="Trazado 7" d="M1025.007,834.657q-.624,1.423-2.044,5.123c-1.819.375-3.351.622-4.571.754a36.33,36.33,0,0,1-3.645.183,21.582,21.582,0,0,1-5.533-.622,7.718,7.718,0,0,1-3.862-2.313,7.5,7.5,0,0,1-1.853-4.114,14.22,14.22,0,0,1,.26-5.132,19.484,19.484,0,0,1,2.338-5.758,16.465,16.465,0,0,1,3.948-4.573,14.112,14.112,0,0,1,4.832-2.516,18.7,18.7,0,0,1,5.169-.734,15.952,15.952,0,0,1,4.546.614,6.628,6.628,0,0,1,3.282,2.014,7.176,7.176,0,0,1,1.559,3.373,11,11,0,0,1-.174,4.39,13.117,13.117,0,0,1-.771,2.341q-8.87.024-17.724.032c-.164.594-.293,1.073-.373,1.427a7.444,7.444,0,0,0-.112,2.971,4.588,4.588,0,0,0,1.1,2.293,4.955,4.955,0,0,0,2.225,1.392,9,9,0,0,0,2.805.447,21.347,21.347,0,0,0,3.7-.363,44.081,44.081,0,0,0,4.9-1.227Zm-13.421-9.769,11.317.023a14.879,14.879,0,0,0,.3-1.719,6.337,6.337,0,0,0-.026-1.272,3.322,3.322,0,0,0-.407-1.253,2.8,2.8,0,0,0-.814-.905,3.882,3.882,0,0,0-1.22-.562,6.307,6.307,0,0,0-1.594-.191,7.057,7.057,0,0,0-2.043.315,7.693,7.693,0,0,0-1.948.92,7.42,7.42,0,0,0-1.6,1.356,8.587,8.587,0,0,0-1.065,1.44c-.268.462-.554,1.072-.9,1.846Z" transform="translate(-333.777 -83.528)" fill="#fff"/>
    <path id="Trazado_8" data-name="Trazado 8" d="M1108.189,834.572c-.234.658-.511,1.412-.866,2.253s-.762,1.874-1.213,3.122a32.439,32.439,0,0,1-6.988.8,18.117,18.117,0,0,1-3.7-.359,8.209,8.209,0,0,1-3.091-1.3,7.078,7.078,0,0,1-2.191-2.452,8.358,8.358,0,0,1-.944-3.688,16.686,16.686,0,0,1,.407-4.458,21.121,21.121,0,0,1,2.294-5.85,15.464,15.464,0,0,1,3.888-4.581,13.173,13.173,0,0,1,4.728-2.421,20.806,20.806,0,0,1,5.29-.646,28.046,28.046,0,0,1,3.2.175,27.375,27.375,0,0,1,3.775.738c-.268,1.766-.546,3.533-.814,5.3a17.616,17.616,0,0,0-6.017-1.232,9.637,9.637,0,0,0-3.222.559,8.368,8.368,0,0,0-2.918,1.758,9.566,9.566,0,0,0-2.113,2.767,13.712,13.712,0,0,0-1.169,3.21,9.642,9.642,0,0,0-.181,3.98,3.735,3.735,0,0,0,1.87,2.6,7.222,7.222,0,0,0,3.758.917,16.532,16.532,0,0,0,2.71-.283,23.794,23.794,0,0,0,3.507-.909Z" transform="translate(-392.387 -83.555)" fill="#fff"/>
    <path id="Trazado_9" data-name="Trazado 9" d="M692.807,751.2c16.1-50.449,125.133-60.477,157.029-25.95,10.793,11.684,10.407,26.146-3.261,35.954-.083.022-1.079-.173-.7-.538,27.377-26.06-12.279-49.637-43.183-52.258,11.449,2.179,22.75,5.591,31.915,10.7,8.462,4.713,18.287,12.611,19.067,22.973.515,6.84-3.31,14.024-13.456,20.854-21.373,10.33-42.985,10.812-64.948-3.1l-3.192-.152c16.8,11.957,36.113,17.961,61.165,10.373,11.563-3.5,25.533-10.277,27.761-23.56,1.673-9.973-4.835-20.795-18.478-30.355,15.035,6.761,26.812,17.733,23.289,38.638,2.548,2.465,22.069-17.865,3.809-38.7-8.827-10.07-24.279-17.645-42.693-23.416,30.266,10.276,41.776,23.029,46.044,31.641,2.449,4.941,3.077,8.5,1.1,13.365-.972,2.387-2.542,2.886-4.357.682a30.316,30.316,0,0,1-2.584-4.218C831.227,683.477,707.9,696.441,692.807,751.2Z" transform="translate(-121.654 0)" fill="#fff" fill-rule="evenodd"/>
    <path id="Trazado_10" data-name="Trazado 10" d="M696.022,833.069a48.306,48.306,0,0,1,11.143-16.352q-.4.088-.789.189-.406.1-.806.234a47.646,47.646,0,0,0-9.581,15.665c.01.088.021.176.033.263Z" transform="translate(-123.827 -84.732)" fill="#fff" fill-rule="evenodd"/>
  </g>
</svg>
